<mxfile host="app.diagrams.net" modified="2024-05-04T20:15:57.301Z" agent="Mozilla/5.0 (Macintosh; Intel Mac OS X 10_15_7) AppleWebKit/537.36 (KHTML, like Gecko) Chrome/123.0.0.0 Safari/537.36" etag="KymrI-atBTjf-OrOrE0J" version="24.0.2" type="github">
  <diagram name="Page-1" id="BA_7hPYRF1KUDc_VYVX_">
    <mxGraphModel dx="1434" dy="824" grid="1" gridSize="10" guides="1" tooltips="1" connect="1" arrows="1" fold="1" page="1" pageScale="1" pageWidth="850" pageHeight="1100" math="0" shadow="0">
      <root>
        <mxCell id="0" />
        <mxCell id="1" parent="0" />
        <mxCell id="yfVU9DwaMPs7eJr9j70h-7" value="" style="edgeStyle=orthogonalEdgeStyle;rounded=0;orthogonalLoop=1;jettySize=auto;html=1;entryX=0;entryY=0.5;entryDx=0;entryDy=0;" edge="1" parent="1" source="yfVU9DwaMPs7eJr9j70h-1" target="yfVU9DwaMPs7eJr9j70h-5">
          <mxGeometry relative="1" as="geometry">
            <Array as="points">
              <mxPoint x="175" y="250" />
              <mxPoint x="175" y="140" />
            </Array>
          </mxGeometry>
        </mxCell>
        <mxCell id="yfVU9DwaMPs7eJr9j70h-11" style="edgeStyle=orthogonalEdgeStyle;rounded=0;orthogonalLoop=1;jettySize=auto;html=1;entryX=0;entryY=0.5;entryDx=0;entryDy=0;" edge="1" parent="1" source="yfVU9DwaMPs7eJr9j70h-1" target="yfVU9DwaMPs7eJr9j70h-4">
          <mxGeometry relative="1" as="geometry" />
        </mxCell>
        <mxCell id="yfVU9DwaMPs7eJr9j70h-1" value="Employee" style="shape=umlActor;verticalLabelPosition=bottom;verticalAlign=top;html=1;outlineConnect=0;" vertex="1" parent="1">
          <mxGeometry x="100" y="220" width="30" height="60" as="geometry" />
        </mxCell>
        <mxCell id="yfVU9DwaMPs7eJr9j70h-9" style="edgeStyle=orthogonalEdgeStyle;rounded=0;orthogonalLoop=1;jettySize=auto;html=1;entryX=0;entryY=0.5;entryDx=0;entryDy=0;" edge="1" parent="1" source="yfVU9DwaMPs7eJr9j70h-2" target="yfVU9DwaMPs7eJr9j70h-6">
          <mxGeometry relative="1" as="geometry" />
        </mxCell>
        <mxCell id="yfVU9DwaMPs7eJr9j70h-10" style="edgeStyle=orthogonalEdgeStyle;rounded=0;orthogonalLoop=1;jettySize=auto;html=1;entryX=0;entryY=0.5;entryDx=0;entryDy=0;" edge="1" parent="1" source="yfVU9DwaMPs7eJr9j70h-2" target="yfVU9DwaMPs7eJr9j70h-4">
          <mxGeometry relative="1" as="geometry" />
        </mxCell>
        <mxCell id="yfVU9DwaMPs7eJr9j70h-2" value="HR" style="shape=umlActor;verticalLabelPosition=bottom;verticalAlign=top;html=1;outlineConnect=0;" vertex="1" parent="1">
          <mxGeometry x="100" y="380" width="30" height="60" as="geometry" />
        </mxCell>
        <mxCell id="yfVU9DwaMPs7eJr9j70h-12" value="" style="edgeStyle=orthogonalEdgeStyle;rounded=0;orthogonalLoop=1;jettySize=auto;html=1;" edge="1" parent="1" source="yfVU9DwaMPs7eJr9j70h-2" target="yfVU9DwaMPs7eJr9j70h-1">
          <mxGeometry relative="1" as="geometry" />
        </mxCell>
        <mxCell id="yfVU9DwaMPs7eJr9j70h-13" value="Audits&lt;div&gt;&lt;br&gt;&lt;/div&gt;" style="edgeLabel;html=1;align=center;verticalAlign=middle;resizable=0;points=[];rotation=270;" vertex="1" connectable="0" parent="yfVU9DwaMPs7eJr9j70h-12">
          <mxGeometry x="-0.2" y="-2" relative="1" as="geometry">
            <mxPoint x="13" y="10" as="offset" />
          </mxGeometry>
        </mxCell>
        <mxCell id="yfVU9DwaMPs7eJr9j70h-4" value="Needs Succession Plan" style="ellipse;whiteSpace=wrap;html=1;" vertex="1" parent="1">
          <mxGeometry x="220" y="280" width="120" height="80" as="geometry" />
        </mxCell>
        <mxCell id="yfVU9DwaMPs7eJr9j70h-5" value="Does Not Need Succession Plan" style="ellipse;whiteSpace=wrap;html=1;" vertex="1" parent="1">
          <mxGeometry x="240" y="100" width="120" height="80" as="geometry" />
        </mxCell>
        <mxCell id="yfVU9DwaMPs7eJr9j70h-6" value="Create Succession Plan&lt;div&gt;&lt;br&gt;&lt;/div&gt;" style="ellipse;whiteSpace=wrap;html=1;" vertex="1" parent="1">
          <mxGeometry x="220" y="370" width="120" height="80" as="geometry" />
        </mxCell>
      </root>
    </mxGraphModel>
  </diagram>
</mxfile>
